{
  "asset": {
    "generator": "Khronos glTF Blender I/O v3.5.30",
    "version": "2.0"
  },
  "scene": 0,
  "scenes": [
    {
      "name": "Scene",
      "nodes": [0]
    }
  ],
  "nodes": [
    {
      "mesh": 0,
      "name": "moi_IM",
      "rotation": [
        0.8162214756011963, -0.053582821041345596, 0.07128529250621796,
        0.5708150267601013
      ],
      "scale": [
        0.0030627951491624117, 0.003062794916331768, 0.0030627951491624117
      ],
      "translation": [
        -0.8231273889541626, 6.098501682281494, -5.460902214050293
      ]
    }
  ],
  "meshes": [
    {
      "name": "moi_IM",
      "primitives": [
        {
          "attributes": {
            "POSITION": 0,
            "TEXCOORD_0": 1,
            "NORMAL": 2
          },
          "indices": 3
        }
      ]
    }
  ],
  "accessors": [
    {
      "bufferView": 0,
      "componentType": 5126,
      "count": 77216,
      "max": [295.6408386230469, 339.4018859863281, 333.1866149902344],
      "min": [-295.8819580078125, -230.9105987548828, -304.7259826660156],
      "type": "VEC3"
    },
    {
      "bufferView": 1,
      "componentType": 5126,
      "count": 77216,
      "type": "VEC2"
    },
    {
      "bufferView": 2,
      "componentType": 5126,
      "count": 77216,
      "type": "VEC3"
    },
    {
      "bufferView": 3,
      "componentType": 5125,
      "count": 116634,
      "type": "SCALAR"
    }
  ],
  "bufferViews": [
    {
      "buffer": 0,
      "byteLength": 926592,
      "byteOffset": 0,
      "target": 34962
    },
    {
      "buffer": 0,
      "byteLength": 617728,
      "byteOffset": 926592,
      "target": 34962
    },
    {
      "buffer": 0,
      "byteLength": 926592,
      "byteOffset": 1544320,
      "target": 34962
    },
    {
      "buffer": 0,
      "byteLength": 466536,
      "byteOffset": 2470912,
      "target": 34963
    }
  ],
  "buffers": [
    {
      "byteLength": 2937448,
      "uri": "data:application/octet-stream;base64,"
    }
  ]
}
