{
	"asset":{
		"generator":"Khronos glTF Blender I/O v3.5.30",
		"version":"2.0"
	},
	"scene":0,
	"scenes":[
		{
			"name":"Scene",
			"nodes":[
				0
			]
		}
	],
	"nodes":[
		{
			"mesh":0,
			"name":"moi_IM"
		}
	],
	"meshes":[
		{
			"name":"moi_IM",
			"primitives":[
				{
					"attributes":{
						"POSITION":0,
						"TEXCOORD_0":1,
						"NORMAL":2
					},
					"indices":3
				}
			]
		}
	],
	"accessors":[
		{
			"bufferView":0,
			"componentType":5126,
			"count":80745,
			"max":[
				3.3302547931671143,
				2.6558425426483154,
				3.0636560916900635
			],
			"min":[
				-3.2765464782714844,
				-3.403916835784912,
				-3.5431458950042725
			],
			"type":"VEC3"
		},
		{
			"bufferView":1,
			"componentType":5126,
			"count":80745,
			"type":"VEC2"
		},
		{
			"bufferView":2,
			"componentType":5126,
			"count":80745,
			"type":"VEC3"
		},
		{
			"bufferView":3,
			"componentType":5125,
			"count":116634,
			"type":"SCALAR"
		}
	],
	"bufferViews":[
		{
			"buffer":0,
			"byteLength":968940,
			"byteOffset":0,
			"target":34962
		},
		{
			"buffer":0,
			"byteLength":645960,
			"byteOffset":968940,
			"target":34962
		},
		{
			"buffer":0,
			"byteLength":968940,
			"byteOffset":1614900,
			"target":34962
		},
		{
			"buffer":0,
			"byteLength":466536,
			"byteOffset":2583840,
			"target":34963
		}
	],
	"buffers":[
		{
			"byteLength":3050376,
			"uri":"data:application/octet-stream;base64,"
		}
	]
}
